<svg width="67" height="67" viewBox="0 0 67 67" fill="none" xmlns="http://www.w3.org/2000/svg">
<path opacity="0.65" d="M0 63.1494C0 28.273 28.273 0 63.1494 0C65.276 0 67 1.72396 67 3.85057V62C67 64.7614 64.7614 67 62 67H3.85058C1.72396 67 0 65.276 0 63.1494Z" fill="#252424"/>
<path d="M51.7255 50.3994L44.9543 43.6282C48.0393 39.8746 47.8294 34.3026 44.3237 30.797C40.5944 27.0677 34.5264 27.0677 30.797 30.797C27.0677 34.5264 27.0677 40.5944 30.797 44.3237C34.3017 47.8284 39.873 48.0406 43.6282 44.9543L50.3994 51.7255C50.7656 52.0917 51.3592 52.0917 51.7254 51.7255C52.0917 51.3592 52.0917 50.7656 51.7255 50.3994ZM42.9977 42.9976C39.9995 45.9958 35.1212 45.9957 32.1231 42.9976C29.125 39.9995 29.125 35.1212 32.1231 32.1231C35.1212 29.1251 39.9995 29.1248 42.9977 32.1231C45.9958 35.1212 45.9958 39.9995 42.9977 42.9976Z" fill="#F2F2F2"/>
<path d="M42.1512 36.6229H38.4978V32.9694C38.4978 32.4515 38.078 32.0317 37.5601 32.0317C37.0422 32.0317 36.6224 32.4515 36.6224 32.9694V36.6229H32.9689C32.4511 36.6229 32.0312 37.0427 32.0312 37.5605C32.0312 38.0784 32.4511 38.4982 32.9689 38.4982H36.6224V42.1517C36.6224 42.6696 37.0422 43.0894 37.5601 43.0894C38.078 43.0894 38.4978 42.6696 38.4978 42.1517V38.4982H42.1512C42.6691 38.4982 43.0889 38.0784 43.0889 37.5605C43.0889 37.0427 42.6691 36.6229 42.1512 36.6229Z" fill="#F2F2F2"/>
</svg>
