<svg width="231" height="218" viewBox="0 0 231 218" fill="none" xmlns="http://www.w3.org/2000/svg">
<path fill-rule="evenodd" clip-rule="evenodd" d="M138.021 182H89.9792V178H138.021V182Z" fill="black"/>
<path d="M138 103C138 122.33 150.984 138 167 138C183.016 138 196 122.33 196 103C196 83.67 183.016 68 167 68C150.984 68 138 83.67 138 103Z" fill="white"/>
<path fill-rule="evenodd" clip-rule="evenodd" d="M167 137C151.704 137 139 121.962 139 103C139 84.0381 151.704 69 167 69C182.296 69 195 84.0381 195 103C195 121.962 182.296 137 167 137ZM167 138C150.984 138 138 122.33 138 103C138 83.67 150.984 68 167 68C183.016 68 196 83.67 196 103C196 122.33 183.016 138 167 138Z" fill="black"/>
<g filter="url(#filter0_d_10_14)">
<path d="M138 116.5C138 131.136 148.074 143 160.5 143C172.926 143 183 131.136 183 116.5C183 101.864 172.926 90 160.5 90C148.074 90 138 101.864 138 116.5Z" fill="black"/>
</g>
<path d="M89 103C89 122.33 76.0163 138 60 138C43.9837 138 31 122.33 31 103C31 83.67 43.9837 68 60 68C76.0163 68 89 83.67 89 103Z" fill="white"/>
<path fill-rule="evenodd" clip-rule="evenodd" d="M60 137C75.2962 137 88 121.962 88 103C88 84.0381 75.2962 69 60 69C44.7038 69 32 84.0381 32 103C32 121.962 44.7038 137 60 137ZM60 138C76.0163 138 89 122.33 89 103C89 83.67 76.0163 68 60 68C43.9837 68 31 83.67 31 103C31 122.33 43.9837 138 60 138Z" fill="black"/>
<g filter="url(#filter1_d_10_14)">
<path d="M89 116.5C89 131.136 78.9264 143 66.5 143C54.0736 143 44 131.136 44 116.5C44 101.864 54.0736 90 66.5 90C78.9264 90 89 101.864 89 116.5Z" fill="black"/>
</g>
<defs>
<filter id="filter0_d_10_14" x="134" y="90" width="53" height="61" filterUnits="userSpaceOnUse" color-interpolation-filters="sRGB">
<feFlood flood-opacity="0" result="BackgroundImageFix"/>
<feColorMatrix in="SourceAlpha" type="matrix" values="0 0 0 0 0 0 0 0 0 0 0 0 0 0 0 0 0 0 127 0" result="hardAlpha"/>
<feOffset dy="4"/>
<feGaussianBlur stdDeviation="2"/>
<feComposite in2="hardAlpha" operator="out"/>
<feColorMatrix type="matrix" values="0 0 0 0 0 0 0 0 0 0 0 0 0 0 0 0 0 0 0.25 0"/>
<feBlend mode="normal" in2="BackgroundImageFix" result="effect1_dropShadow_10_14"/>
<feBlend mode="normal" in="SourceGraphic" in2="effect1_dropShadow_10_14" result="shape"/>
</filter>
<filter id="filter1_d_10_14" x="40" y="90" width="53" height="61" filterUnits="userSpaceOnUse" color-interpolation-filters="sRGB">
<feFlood flood-opacity="0" result="BackgroundImageFix"/>
<feColorMatrix in="SourceAlpha" type="matrix" values="0 0 0 0 0 0 0 0 0 0 0 0 0 0 0 0 0 0 127 0" result="hardAlpha"/>
<feOffset dy="4"/>
<feGaussianBlur stdDeviation="2"/>
<feComposite in2="hardAlpha" operator="out"/>
<feColorMatrix type="matrix" values="0 0 0 0 0 0 0 0 0 0 0 0 0 0 0 0 0 0 0.25 0"/>
<feBlend mode="normal" in2="BackgroundImageFix" result="effect1_dropShadow_10_14"/>
<feBlend mode="normal" in="SourceGraphic" in2="effect1_dropShadow_10_14" result="shape"/>
</filter>
</defs>
</svg>
