<svg width="193" height="170" viewBox="0 0 193 170" fill="none" xmlns="http://www.w3.org/2000/svg">
<path d="M161.141 15.386L191.442 103.966C194.23 112.116 189.792 121.021 181.534 123.845L51.9024 168.189C43.6446 171.014 34.6828 166.693 31.8947 158.542L1.59403 69.9627C-1.19405 61.8122 3.24363 52.9077 11.5014 50.0829L38.9235 40.7025L39.295 29.2724C39.5088 22.7748 43.7821 17.0529 50.0144 14.921L89.1221 1.54327C95.3544 -0.588628 102.237 1.31716 106.386 6.32252L113.711 15.1197L141.133 5.73935C149.391 2.91458 158.353 7.2355 161.141 15.386ZM133.912 74.1728C126.947 53.8118 104.521 42.9994 83.8925 50.056C63.2636 57.1126 52.1591 79.3946 59.124 99.7556C66.089 120.117 88.5142 130.929 109.143 123.872C129.772 116.816 140.877 94.5338 133.912 74.1728ZM123.94 77.5838C129.043 92.5009 120.89 108.86 105.776 114.03C90.663 119.2 74.1984 111.262 69.0957 96.3445C63.993 81.4275 72.1459 65.0681 87.2592 59.8982C102.373 54.7283 118.837 62.6668 123.94 77.5838Z" fill="#9E2339"/>
</svg>
