<svg width="50" height="50" viewBox="0 0 50 50" fill="none" xmlns="http://www.w3.org/2000/svg">
<circle cx="25" cy="25" r="25" fill="#293459"/>
<path d="M36.4758 18.9494C36.6338 18.4025 36.4758 18 35.7158 18H33.2009C32.5605 18 32.2659 18.3456 32.1079 18.7306C32.1079 18.7306 30.827 21.9288 29.0166 24.0025C28.4317 24.6019 28.1627 24.7944 27.8424 24.7944C27.6845 24.7944 27.4411 24.6019 27.4411 24.055V18.9494C27.4411 18.2931 27.2618 18 26.7323 18H22.7785C22.3772 18 22.1381 18.3063 22.1381 18.5906C22.1381 19.2119 23.0433 19.3562 23.1372 21.1063V24.9038C23.1372 25.735 22.992 25.8881 22.6718 25.8881C21.8179 25.8881 19.7428 22.6769 18.5131 19.0019C18.2655 18.2888 18.0221 18 17.3773 18H14.8625C14.1452 18 14 18.3456 14 18.7306C14 19.4131 14.8539 22.8038 17.9751 27.2838C20.0545 30.3419 22.9835 32 25.6478 32C27.2489 32 27.4454 31.6325 27.4454 30.9981C27.4454 28.0756 27.3002 27.8 28.1029 27.8C28.4744 27.8 29.1148 27.9925 30.6092 29.4669C32.3171 31.2169 32.5989 32 33.5553 32H36.0702C36.7875 32 37.1504 31.6325 36.9412 30.9062C36.463 29.3794 33.2308 26.2381 33.0857 26.0281C32.7142 25.5381 32.8209 25.3194 33.0857 24.8819C33.0899 24.8775 36.1599 20.45 36.4758 18.9494Z" fill="white"/>
</svg>
