<svg width="170" height="146" viewBox="0 0 170 146" fill="none" xmlns="http://www.w3.org/2000/svg">
<path d="M169.463 36.7147V130.333C169.463 138.948 162.382 145.937 153.654 145.937H16.6478C7.92021 145.937 0.839355 138.948 0.839355 130.333V36.7147C0.839355 28.1004 7.92021 21.1115 16.6478 21.1115H45.6299L49.6808 10.4169C51.9862 4.33818 57.8814 0.307373 64.4683 0.307373H105.801C112.388 0.307373 118.283 4.33818 120.588 10.4169L124.672 21.1115H153.654C162.382 21.1115 169.463 28.1004 169.463 36.7147ZM124.672 83.524C124.672 62.0047 106.953 44.5162 85.151 44.5162C63.3485 44.5162 45.6299 62.0047 45.6299 83.524C45.6299 105.043 63.3485 122.532 85.151 122.532C106.953 122.532 124.672 105.043 124.672 83.524ZM114.133 83.524C114.133 99.2897 101.124 112.13 85.151 112.13C69.1779 112.13 56.1689 99.2897 56.1689 83.524C56.1689 67.7584 69.1779 54.9183 85.151 54.9183C101.124 54.9183 114.133 67.7584 114.133 83.524Z" fill="#9E2339"/>
</svg>
