<svg width="25" height="24" viewBox="0 0 25 24" fill="none" xmlns="http://www.w3.org/2000/svg">
<path fill-rule="evenodd" clip-rule="evenodd" d="M12.9955 22.4998C18.7945 22.4998 23.4955 17.7987 23.4955 11.9998C23.4955 6.20077 18.7945 1.49976 12.9955 1.49976C7.19649 1.49976 2.49548 6.20077 2.49548 11.9998C2.49548 17.7987 7.19649 22.4998 12.9955 22.4998ZM12.9955 23.9998C19.6229 23.9998 24.9955 18.6272 24.9955 11.9998C24.9955 5.37234 19.6229 -0.000244141 12.9955 -0.000244141C6.36807 -0.000244141 0.995483 5.37234 0.995483 11.9998C0.995483 18.6272 6.36807 23.9998 12.9955 23.9998Z" fill="white"/>
<path d="M13.6205 10.4373V9.18726C13.6205 8.84226 13.9005 8.56226 14.2455 8.56226H14.8705V6.99976H13.6205C12.5849 6.99976 11.7455 7.83913 11.7455 8.87476V10.4373H10.4955V11.9998H11.7455V16.9998H13.6205V11.9998H14.8705L15.4955 10.4373H13.6205Z" fill="white"/>
</svg>
