<svg width="77" height="32" viewBox="0 0 77 32" fill="none" xmlns="http://www.w3.org/2000/svg">
<path d="M1.092 8.32124H7.266C8.932 8.32124 10.262 8.76224 11.256 9.64424C12.25 10.5122 12.747 11.7232 12.747 13.2772C12.747 14.8732 12.25 16.0982 11.256 16.9522C10.276 17.8062 8.946 18.2332 7.266 18.2332H4.284V23.0002H1.092V8.32124ZM6.804 15.5662C8.61 15.5662 9.513 14.8032 9.513 13.2772C9.513 12.4232 9.268 11.8282 8.778 11.4922C8.302 11.1562 7.644 10.9882 6.804 10.9882H4.284V15.5662H6.804ZM14.217 7.48124H17.388V14.0752C17.864 13.5852 18.403 13.2212 19.005 12.9832C19.607 12.7312 20.251 12.6052 20.937 12.6052C22.309 12.6052 23.331 12.9762 24.003 13.7182C24.689 14.4462 25.032 15.4332 25.032 16.6792V23.0002H21.861V17.0362C21.861 15.7342 21.259 15.0832 20.055 15.0832C19.523 15.0832 19.026 15.2162 18.564 15.4822C18.102 15.7342 17.71 16.1122 17.388 16.6162V23.0002H14.217V7.48124ZM56.0841 8.32124H59.4441L62.0691 17.8132L64.6521 8.32124H67.1091L69.6081 17.8132L72.2331 8.32124H75.5721L71.4561 23.0002H68.4531L65.8281 13.6972L63.2241 23.0002H60.2001L56.0841 8.32124Z" fill="white"/>
<path d="M52.5993 11.4971L50.7222 23.5663C50.5495 24.6768 49.4965 25.4358 48.3714 25.2608L30.7087 22.5139C29.5836 22.3389 28.8108 21.2959 28.9836 20.1854L30.8606 8.11618C31.0333 7.00565 32.0863 6.24662 33.2115 6.42161L36.9478 7.0027L37.6845 5.70518C38.1035 4.96774 38.9444 4.5663 39.7935 4.69836L45.122 5.52708C45.9712 5.65914 46.6504 6.29699 46.8257 7.12687L47.1378 8.58749L50.8741 9.16858C51.9993 9.34356 52.772 10.3865 52.5993 11.4971ZM45.8864 16.6336C46.3179 13.8594 44.3843 11.2495 41.5735 10.8124C38.7628 10.3753 36.1279 12.2746 35.6964 15.0488C35.265 17.8231 37.1986 20.4329 40.0093 20.8701C42.8201 21.3072 45.455 19.4079 45.8864 16.6336ZM44.5278 16.4223C44.2117 18.4548 42.2771 19.8493 40.2179 19.529C38.1586 19.2088 36.739 17.2926 37.0551 15.2601C37.3712 13.2276 39.3057 11.8332 41.365 12.1534C43.4242 12.4737 44.8439 14.3898 44.5278 16.4223Z" fill="#9E2339"/>
</svg>
