<svg width="75" height="16" viewBox="0 0 75 16" fill="none" xmlns="http://www.w3.org/2000/svg">
<path d="M0.092 1.32124H6.266C7.932 1.32124 9.262 1.76224 10.256 2.64424C11.25 3.51224 11.747 4.72324 11.747 6.27724C11.747 7.87324 11.25 9.09824 10.256 9.95224C9.276 10.8062 7.946 11.2332 6.266 11.2332H3.284V16.0002H0.092V1.32124ZM5.804 8.56624C7.61 8.56624 8.513 7.80324 8.513 6.27724C8.513 5.42324 8.268 4.82824 7.778 4.49224C7.302 4.15624 6.644 3.98824 5.804 3.98824H3.284V8.56624H5.804ZM13.217 0.481244H16.388V7.07524C16.864 6.58524 17.403 6.22124 18.005 5.98324C18.607 5.73124 19.251 5.60524 19.937 5.60524C21.309 5.60524 22.331 5.97624 23.003 6.71824C23.689 7.44624 24.032 8.43324 24.032 9.67924V16.0002H20.861V10.0362C20.861 8.73424 20.259 8.08324 19.055 8.08324C18.523 8.08324 18.026 8.21624 17.564 8.48224C17.102 8.73424 16.71 9.11224 16.388 9.61624V16.0002H13.217V0.481244ZM55.0841 1.32124H58.4441L61.0691 10.8132L63.6521 1.32124H66.1091L68.6081 10.8132L71.2331 1.32124H74.5721L70.4561 16.0002H67.4531L64.8281 6.69724L62.2241 16.0002H59.2001L55.0841 1.32124Z" fill="white"/>
</svg>
