<svg width="25" height="24" viewBox="0 0 25 24" fill="none" xmlns="http://www.w3.org/2000/svg">
<path fill-rule="evenodd" clip-rule="evenodd" d="M12.9955 22.4998C18.7945 22.4998 23.4955 17.7987 23.4955 11.9998C23.4955 6.20077 18.7945 1.49976 12.9955 1.49976C7.19649 1.49976 2.49548 6.20077 2.49548 11.9998C2.49548 17.7987 7.19649 22.4998 12.9955 22.4998ZM12.9955 23.9998C19.6229 23.9998 24.9955 18.6272 24.9955 11.9998C24.9955 5.37234 19.6229 -0.000244141 12.9955 -0.000244141C6.36807 -0.000244141 0.995483 5.37234 0.995483 11.9998C0.995483 18.6272 6.36807 23.9998 12.9955 23.9998Z" fill="white"/>
<path d="M17.9623 7.91061L16.0006 16.3966C15.8526 16.9955 15.4666 17.1446 14.9181 16.8624L11.929 14.8421L10.4867 16.1144C10.3271 16.2608 10.1936 16.3833 9.88596 16.3833L10.1007 13.591L15.6407 8.99931C15.8816 8.80233 15.5885 8.6932 15.2663 8.89018L8.41752 12.8457L5.46905 11.9992C4.8277 11.8156 4.81609 11.411 5.60254 11.1288L17.1353 7.0535C17.6692 6.86983 18.1365 7.16263 17.9623 7.91061Z" fill="white"/>
</svg>
