<svg width="25" height="24" viewBox="0 0 25 24" fill="none" xmlns="http://www.w3.org/2000/svg">
<path fill-rule="evenodd" clip-rule="evenodd" d="M12.9955 22.4998C18.7945 22.4998 23.4955 17.7987 23.4955 11.9998C23.4955 6.20077 18.7945 1.49976 12.9955 1.49976C7.19649 1.49976 2.49548 6.20077 2.49548 11.9998C2.49548 17.7987 7.19649 22.4998 12.9955 22.4998ZM12.9955 23.9998C19.6229 23.9998 24.9955 18.6272 24.9955 11.9998C24.9955 5.37234 19.6229 -0.000244141 12.9955 -0.000244141C6.36807 -0.000244141 0.995483 5.37234 0.995483 11.9998C0.995483 18.6272 6.36807 23.9998 12.9955 23.9998Z" fill="white"/>
<path d="M18.7031 8.54274C18.7924 8.23024 18.7031 8.00024 18.2735 8.00024H16.8521C16.4901 8.00024 16.3236 8.19774 16.2343 8.41774C16.2343 8.41774 15.5103 10.2452 14.487 11.4302C14.1564 11.7727 14.0044 11.8827 13.8234 11.8827C13.7341 11.8827 13.5965 11.7727 13.5965 11.4602V8.54274C13.5965 8.16774 13.4952 8.00024 13.1959 8.00024H10.9612C10.7343 8.00024 10.5992 8.17524 10.5992 8.33774C10.5992 8.69274 11.1108 8.77524 11.1639 9.77524V11.9452C11.1639 12.4202 11.0818 12.5077 10.9008 12.5077C10.4182 12.5077 9.24531 10.6727 8.55027 8.57274C8.4103 8.16524 8.27274 8.00024 7.90833 8.00024H6.48688C6.08144 8.00024 5.99939 8.19774 5.99939 8.41774C5.99939 8.80774 6.48205 10.7452 8.24619 13.3052C9.42148 15.0527 11.077 16.0002 12.5829 16.0002C13.4879 16.0002 13.5989 15.7902 13.5989 15.4277C13.5989 13.7577 13.5169 13.6002 13.9706 13.6002C14.1805 13.6002 14.5425 13.7102 15.3872 14.5527C16.3525 15.5527 16.5118 16.0002 17.0524 16.0002H18.4738C18.8793 16.0002 19.0844 15.7902 18.9662 15.3752C18.6959 14.5027 16.869 12.7077 16.7869 12.5877C16.577 12.3077 16.6373 12.1827 16.7869 11.9327C16.7893 11.9302 18.5245 9.40024 18.7031 8.54274Z" fill="white"/>
</svg>
