<svg width="1600" height="1017" viewBox="0 0 1600 1017" fill="none" xmlns="http://www.w3.org/2000/svg">
<path opacity="0.1" d="M1726.41 230.784C1349.34 399.995 1206.84 476.955 1770.81 292.207L1802.37 335.873C1746.82 363.491 1660.56 401.678 1533.46 453.34C1404.7 505.681 741.767 752.472 1687.31 485.043C1729.99 472.972 1876.77 439.148 1878.53 441.223L1802.37 335.873C1938.25 268.319 1890.36 264 1806.77 280.387C1794.48 284.44 1782.49 288.38 1770.81 292.207L1726.41 230.784Z" fill="url(#paint0_linear_1_488)"/>
<g filter="url(#filter0_d_1_488)">
<path fill-rule="evenodd" clip-rule="evenodd" d="M1591.1 83.0852C1581.22 60.2623 1558.7 29.9717 1530.13 -1.53502L1525.69 2.49493C1554.16 33.9066 1576.12 63.5946 1585.6 85.4694C1590.38 96.5209 1591.66 104.877 1589.82 110.337C1588.93 112.942 1587.31 114.985 1584.76 116.475C1582.14 118.004 1578.41 119.023 1573.29 119.234C1562.99 119.66 1547.83 116.802 1526.87 109.611C1505.97 102.441 1479.53 91.0513 1446.74 74.6379C1381.18 41.8127 1290.45 -10.9983 1168.25 -89.9998L1165 -84.961C1287.28 -5.90474 1378.21 47.0379 1444.06 80.003C1476.98 96.4848 1503.68 107.999 1524.92 115.286C1546.1 122.551 1562.1 125.701 1573.53 125.229C1579.27 124.992 1584.05 123.836 1587.79 121.656C1591.58 119.438 1594.15 116.239 1595.5 112.261C1598.11 104.555 1595.99 94.3825 1591.1 83.0852Z" fill="#FFE8EC"/>
</g>
<g filter="url(#filter1_d_1_488)">
<path fill-rule="evenodd" clip-rule="evenodd" d="M830.732 -69.5582C838.53 -70.2324 844.17 -78.6635 843.329 -88.3894C842.488 -98.1153 835.485 -105.453 827.687 -104.779C819.889 -104.105 814.25 -95.6737 815.091 -85.9478C815.103 -85.812 815.115 -85.6768 815.13 -85.542C812.655 -84.9314 809.846 -84.2153 806.744 -83.3955C795.48 -80.4179 780.137 -76.0122 762.404 -70.1361C726.955 -58.3903 681.857 -40.7385 640.661 -16.825C599.524 7.05452 561.942 37.3693 541.956 74.5872C521.839 112.048 519.732 156.175 548.941 206.903C575.613 253.225 597.322 293.406 608.132 323.062C613.557 337.942 616.085 349.783 615.37 358.271C615.017 362.461 613.888 365.65 612.1 367.991C610.336 370.3 607.752 372.021 604.033 372.991C596.389 374.983 584.308 373.7 566.594 367.871C549.005 362.084 526.332 351.979 497.77 336.925C440.657 306.823 360.348 257.121 250.685 183.199C174.794 131.936 112.617 99.6021 69.0003 87.1715C47.2654 80.977 29.6398 79.5746 17.1337 83.7172C10.7966 85.8164 5.72762 89.3575 2.20164 94.4242C-1.30881 99.4686 -3.13456 105.801 -3.39469 113.242C-3.91118 128.017 1.72287 147.724 13.6226 172.255C25.5602 196.865 43.9611 226.644 69.3677 261.667C120.175 331.705 199.176 422.953 311.071 536.124C349.283 579.967 379.579 622.011 393.878 653.815C401.07 669.813 403.966 682.693 402.307 691.752C401.498 696.175 399.616 699.627 396.634 702.188C393.618 704.778 389.248 706.654 383.149 707.475C370.852 709.132 352.294 706.404 326.174 697.812C300.14 689.248 266.914 674.97 225.428 653.868C142.461 611.669 26.7155 542.316 -130.173 437.247C-176.336 406.331 -220.097 380.234 -251.904 367.039C-267.684 360.492 -281.054 356.885 -290.43 357.864C-295.227 358.366 -299.355 360.111 -302.05 363.657C-304.714 367.161 -305.562 371.881 -305.017 377.45C-303.938 388.475 -297.236 404.485 -284.278 426.226C-271.251 448.083 -251.674 476.097 -224.405 511.237C-169.86 581.525 -84.3731 680.535 41.4769 816.183L41.5473 816.259L41.6227 816.33C70.4054 843.354 104.824 882.317 132.168 915.656C145.833 932.317 157.703 947.538 166.191 959.121C170.439 964.918 173.818 969.772 176.146 973.424C177.313 975.254 178.189 976.74 178.774 977.868C179.066 978.433 179.265 978.868 179.389 979.185C179.481 979.421 179.504 979.523 179.505 979.523C179.506 979.523 179.5 979.494 179.496 979.441L185.473 978.925C185.413 978.225 185.19 977.547 184.979 977.006C184.752 976.421 184.45 975.781 184.1 975.106C183.399 973.753 182.417 972.099 181.205 970.199C178.777 966.389 175.313 961.417 171.031 955.575C162.46 943.88 150.52 928.57 136.807 911.851C109.42 878.459 74.8482 839.307 45.8047 812.026C-79.9605 676.467 -165.288 577.629 -219.664 507.558C-246.86 472.513 -266.273 444.716 -279.124 423.154C-292.044 401.477 -298.107 386.46 -299.046 376.866C-299.509 372.125 -298.679 369.137 -297.273 367.288C-295.899 365.48 -293.566 364.225 -289.806 363.832C-282.068 363.024 -269.941 366.052 -254.203 372.581C-222.976 385.536 -179.626 411.35 -133.512 442.232C23.4629 547.359 139.434 616.861 222.708 659.216C264.342 680.393 297.867 694.817 324.299 703.512C350.646 712.178 370.268 715.265 383.95 713.421C390.841 712.493 396.41 710.29 400.544 706.739C404.711 703.16 407.189 698.408 408.209 692.833C410.211 681.895 406.65 667.592 399.35 651.355C384.672 618.707 353.875 576.096 315.531 532.11L315.47 532.039L315.403 531.972C203.586 418.884 124.794 327.854 74.2244 258.144C48.9373 223.286 30.7514 193.819 19.0209 169.637C7.25237 145.375 2.13702 126.743 2.60165 113.452C2.83208 106.86 4.42952 101.727 7.12645 97.8515C9.8078 93.9985 13.7303 91.1652 19.0204 89.4129C29.7685 85.8525 45.9397 86.8381 67.3558 92.9417C110.041 105.107 171.585 137.009 247.326 188.171L247.329 188.173C357.043 262.129 437.567 311.977 494.972 342.233C523.669 357.358 546.676 367.634 564.718 373.571C582.634 379.466 596.133 381.25 605.547 378.797C610.358 377.542 614.172 375.162 616.868 371.633C619.539 368.137 620.93 363.751 621.349 358.775C622.178 348.929 619.258 336.063 613.769 321.007C602.753 290.788 580.779 250.173 554.141 203.909C525.908 154.876 528.161 112.957 547.242 77.4259C566.453 41.6519 602.905 12.0292 643.673 -11.6359C684.382 -35.2669 729.059 -52.7666 764.291 -64.4406C781.897 -70.2745 797.121 -74.6456 808.278 -77.5948C811.383 -78.4157 814.157 -79.122 816.57 -79.7172C819.176 -73.2847 824.718 -69.0382 830.732 -69.5582Z" fill="#FFDAE1"/>
</g>
<defs>
<filter id="filter0_d_1_488" x="1161" y="-89.9998" width="439.629" height="244.275" filterUnits="userSpaceOnUse" color-interpolation-filters="sRGB">
<feFlood flood-opacity="0" result="BackgroundImageFix"/>
<feColorMatrix in="SourceAlpha" type="matrix" values="0 0 0 0 0 0 0 0 0 0 0 0 0 0 0 0 0 0 127 0" result="hardAlpha"/>
<feOffset dy="25"/>
<feGaussianBlur stdDeviation="2"/>
<feColorMatrix type="matrix" values="0 0 0 0 0 0 0 0 0 0 0 0 0 0 0 0 0 0 0.1 0"/>
<feBlend mode="normal" in2="BackgroundImageFix" result="effect1_dropShadow_1_488"/>
<feBlend mode="normal" in="SourceGraphic" in2="effect1_dropShadow_1_488" result="shape"/>
</filter>
<filter id="filter1_d_1_488" x="-309.174" y="-104.822" width="1156.59" height="1113.35" filterUnits="userSpaceOnUse" color-interpolation-filters="sRGB">
<feFlood flood-opacity="0" result="BackgroundImageFix"/>
<feColorMatrix in="SourceAlpha" type="matrix" values="0 0 0 0 0 0 0 0 0 0 0 0 0 0 0 0 0 0 127 0" result="hardAlpha"/>
<feOffset dy="25"/>
<feGaussianBlur stdDeviation="2"/>
<feColorMatrix type="matrix" values="0 0 0 0 0 0 0 0 0 0 0 0 0 0 0 0 0 0 0.25 0"/>
<feBlend mode="normal" in2="BackgroundImageFix" result="effect1_dropShadow_1_488"/>
<feBlend mode="normal" in="SourceGraphic" in2="effect1_dropShadow_1_488" result="shape"/>
</filter>
<linearGradient id="paint0_linear_1_488" x1="1431.22" y1="436.073" x2="1802.22" y2="277.102" gradientUnits="userSpaceOnUse">
<stop stop-color="white"/>
<stop offset="1" stop-color="#DCDBDB" stop-opacity="0"/>
</linearGradient>
</defs>
</svg>
