<svg width="25" height="24" viewBox="0 0 25 24" fill="none" xmlns="http://www.w3.org/2000/svg">
<path fill-rule="evenodd" clip-rule="evenodd" d="M12.9955 22.4998C18.7945 22.4998 23.4955 17.7987 23.4955 11.9998C23.4955 6.20077 18.7945 1.49976 12.9955 1.49976C7.19649 1.49976 2.49548 6.20077 2.49548 11.9998C2.49548 17.7987 7.19649 22.4998 12.9955 22.4998ZM12.9955 23.9998C19.6229 23.9998 24.9955 18.6272 24.9955 11.9998C24.9955 5.37234 19.6229 -0.000244141 12.9955 -0.000244141C6.36807 -0.000244141 0.995483 5.37234 0.995483 11.9998C0.995483 18.6272 6.36807 23.9998 12.9955 23.9998Z" fill="white"/>
<path d="M12.9967 6.99976H12.9942C10.2374 6.99976 7.99548 9.24226 7.99548 11.9998C7.99548 13.0935 8.34798 14.1073 8.94736 14.9304L8.32423 16.7879L10.2461 16.1735C11.0367 16.6973 11.9799 16.9998 12.9967 16.9998C15.7536 16.9998 17.9955 14.7566 17.9955 11.9998C17.9955 9.24288 15.7536 6.99976 12.9967 6.99976ZM15.9061 14.0604C15.7855 14.401 15.3067 14.6835 14.9249 14.766C14.6636 14.8216 14.3224 14.866 13.1736 14.3898C11.7042 13.781 10.758 12.2879 10.6842 12.191C10.6136 12.0941 10.0905 11.4004 10.0905 10.6829C10.0905 9.96538 10.4549 9.61601 10.6017 9.46601C10.7224 9.34288 10.9217 9.28663 11.113 9.28663C11.1749 9.28663 11.2305 9.28976 11.2805 9.29226C11.4274 9.29851 11.5011 9.30726 11.598 9.53913C11.7186 9.82976 12.0124 10.5473 12.0474 10.621C12.083 10.6948 12.1186 10.7948 12.0686 10.8916C12.0217 10.9916 11.9805 11.036 11.9067 11.121C11.833 11.206 11.763 11.271 11.6892 11.3623C11.6217 11.4416 11.5455 11.5266 11.6305 11.6735C11.7155 11.8173 12.0092 12.2966 12.4417 12.6816C12.9999 13.1785 13.4524 13.3373 13.6142 13.4048C13.7349 13.4548 13.8786 13.4429 13.9667 13.3491C14.0786 13.2285 14.2167 13.0285 14.3574 12.8316C14.4574 12.6904 14.5836 12.6729 14.7161 12.7229C14.8511 12.7698 15.5655 13.1229 15.7124 13.196C15.8592 13.2698 15.9561 13.3048 15.9917 13.3666C16.0267 13.4285 16.0267 13.7191 15.9061 14.0604Z" fill="white"/>
</svg>
